<svg width="62" height="99" viewBox="0 0 62 99" fill="none" xmlns="http://www.w3.org/2000/svg">
<path d="M0 12.375C0 9.09295 1.30642 5.94532 3.63188 3.62455C5.95733 1.30379 9.11131 0 12.4 0L49.6 0C52.8887 0 56.0427 1.30379 58.3681 3.62455C60.6936 5.94532 62 9.09295 62 12.375V86.625C62 89.9071 60.6936 93.0547 58.3681 95.3754C56.0427 97.6962 52.8887 99 49.6 99H12.4C9.11131 99 5.95733 97.6962 3.63188 95.3754C1.30642 93.0547 0 89.9071 0 86.625V12.375ZM37.2 80.4375C37.2 78.7965 36.5468 77.2227 35.3841 76.0623C34.2213 74.9019 32.6443 74.25 31 74.25C29.3557 74.25 27.7787 74.9019 26.6159 76.0623C25.4532 77.2227 24.8 78.7965 24.8 80.4375C24.8 82.0785 25.4532 83.6523 26.6159 84.8127C27.7787 85.9731 29.3557 86.625 31 86.625C32.6443 86.625 34.2213 85.9731 35.3841 84.8127C36.5468 83.6523 37.2 82.0785 37.2 80.4375Z" fill="url(#paint0_linear_1061_1020)"/>
<defs>
<linearGradient id="paint0_linear_1061_1020" x1="1.44186" y1="-8.43321e-07" x2="72.231" y2="50.7643" gradientUnits="userSpaceOnUse">
<stop stop-color="#233A72"/>
<stop offset="1" stop-color="#435789"/>
</linearGradient>
</defs>
</svg>
