<svg width="86" height="86" viewBox="0 0 86 86" fill="none" xmlns="http://www.w3.org/2000/svg">
<path d="M16.125 13.4375C16.125 9.87365 17.5407 6.45577 20.0608 3.93575C22.5808 1.41573 25.9987 0 29.5625 0C33.1263 0 36.5442 1.41573 39.0642 3.93575C41.5843 6.45577 43 9.87365 43 13.4375C43 9.87365 44.4157 6.45577 46.9358 3.93575C49.4558 1.41573 52.8737 0 56.4375 0C60.0013 0 63.4192 1.41573 65.9392 3.93575C68.4593 6.45577 69.875 9.87365 69.875 13.4375V13.4698C69.875 13.846 69.875 14.921 69.6707 16.125H80.625C82.0505 16.125 83.4177 16.6913 84.4257 17.6993C85.4337 18.7073 86 20.0745 86 21.5V26.875C86 28.3005 85.4337 29.6677 84.4257 30.6757C83.4177 31.6837 82.0505 32.25 80.625 32.25H5.375C3.94946 32.25 2.58231 31.6837 1.5743 30.6757C0.566293 29.6677 0 28.3005 0 26.875V21.5C0 20.0745 0.566293 18.7073 1.5743 17.6993C2.58231 16.6913 3.94946 16.125 5.375 16.125H16.3293C16.1873 15.2472 16.119 14.359 16.125 13.4698V13.4375ZM21.8655 16.125H37.625V13.4375C37.625 12.3787 37.4165 11.3303 37.0113 10.3521C36.6061 9.37393 36.0122 8.48512 35.2635 7.73645C34.5149 6.98778 33.6261 6.3939 32.6479 5.98872C31.6697 5.58354 30.6213 5.375 29.5625 5.375C28.5037 5.375 27.4553 5.58354 26.4771 5.98872C25.4989 6.3939 24.6101 6.98778 23.8615 7.73645C23.1128 8.48512 22.5189 9.37393 22.1137 10.3521C21.7085 11.3303 21.5 12.3787 21.5 13.4375C21.5 13.8944 21.5107 14.9103 21.7419 15.7488C21.7742 15.8769 21.8155 16.0027 21.8655 16.125ZM48.375 16.125H64.1345C64.1839 16.0024 64.2252 15.8767 64.2581 15.7488C64.4893 14.9103 64.5 13.8944 64.5 13.4375C64.5 11.2992 63.6506 9.24846 62.1385 7.73645C60.6265 6.22444 58.5758 5.375 56.4375 5.375C54.2992 5.375 52.2485 6.22444 50.7365 7.73645C49.2244 9.24846 48.375 11.2992 48.375 13.4375V16.125ZM80.625 37.625V77.9375C80.625 80.0758 79.7756 82.1265 78.2635 83.6385C76.7515 85.1506 74.7008 86 72.5625 86H48.375V37.625H80.625ZM13.4375 86C11.2992 86 9.24846 85.1506 7.73645 83.6385C6.22444 82.1265 5.375 80.0758 5.375 77.9375V37.625H37.625V86H13.4375Z" fill="url(#paint0_linear_1061_1019)"/>
<defs>
<linearGradient id="paint0_linear_1061_1019" x1="2" y1="-7.32582e-07" x2="66.3333" y2="73.6667" gradientUnits="userSpaceOnUse">
<stop stop-color="#233A72"/>
<stop offset="1" stop-color="#435789"/>
</linearGradient>
</defs>
</svg>
