<svg width="82" height="118" viewBox="0 0 82 118" fill="none" xmlns="http://www.w3.org/2000/svg">
<path d="M53.5922 47.49C53.2469 47.3442 52.9599 47.0876 52.7766 46.7607C52.5932 46.4337 52.524 46.055 52.5797 45.6844L55.651 25.6875H47.5003C47.2419 25.6944 46.9854 25.6419 46.7505 25.534C46.5156 25.4261 46.3086 25.2657 46.1456 25.0651C45.9825 24.8646 45.8677 24.6292 45.81 24.3772C45.7523 24.1253 45.7533 23.8634 45.8128 23.6119L50.8753 1.67437C50.9644 1.29682 51.1809 0.961497 51.4882 0.724834C51.7956 0.488172 52.1751 0.364626 52.5628 0.374993H69.4378C69.6899 0.374136 69.939 0.429775 70.1668 0.537824C70.3946 0.645872 70.5953 0.803583 70.7541 0.999368C70.9152 1.19736 71.0292 1.42932 71.0877 1.67777C71.1461 1.92622 71.1475 2.1847 71.0916 2.43374L68.1722 15.5625H76.1878C76.5041 15.5619 76.8142 15.6501 77.0827 15.8172C77.3513 15.9843 77.5674 16.2235 77.7066 16.5075C77.8275 16.7801 77.874 17.0799 77.8414 17.3763C77.8088 17.6727 77.6983 17.9552 77.521 18.195L55.5835 46.8825C55.4352 47.1023 55.2372 47.284 55.0056 47.413C54.774 47.542 54.5153 47.6147 54.2503 47.625C54.0245 47.6208 53.8014 47.575 53.5922 47.49Z" fill="url(#paint0_linear_4517_6970)"/>
<path d="M43.0072 37.5943L80.539 83.6964C82.2824 85.838 81.9596 88.9873 79.8181 90.7307L47.9324 116.689C45.7909 118.432 42.6415 118.11 40.8981 115.968L3.44194 69.9587C2.76648 69.129 2.37497 68.1045 2.32495 67.0358L0.930284 37.2386C0.856127 35.6542 1.53809 34.1286 2.76812 33.1273L8.42938 28.5185C9.71898 27.4686 11.4461 27.1286 13.0374 27.6113L40.581 35.9662C41.5338 36.2552 42.3786 36.8221 43.0072 37.5943Z" fill="url(#paint1_linear_4517_6970)"/>
<path d="M19.6586 45.5324C19.636 46.7 19.2284 47.6655 18.4357 48.4288C17.643 49.1921 16.6635 49.5625 15.4971 49.5399C14.3307 49.5173 13.3663 49.1092 12.6038 48.3158C11.8413 47.5223 11.4713 46.5418 11.494 45.3742C11.5166 44.2066 11.9243 43.2412 12.7169 42.4778C13.5096 41.7145 14.4891 41.3442 15.6555 41.3668C16.8219 41.3894 17.7863 41.7974 18.5488 42.5909C19.3113 43.3843 19.6813 44.3648 19.6586 45.5324ZM21.2351 74.5689L59.103 87.3724L60.4638 87.3988C62.2782 87.4339 63.6578 86.4873 64.6027 84.5589C65.0116 83.5286 64.9669 82.4895 64.4687 81.4416C63.9704 80.3937 63.2066 79.6651 62.1774 79.2558L24.3094 66.4523C23.2827 65.9133 22.2135 65.8926 21.1019 66.3902C19.9902 66.8878 19.23 67.6517 18.8211 68.682C17.9857 71.6508 18.7903 73.6131 21.2351 74.5689ZM51.9765 93.8531C51.9438 95.5396 51.3324 96.9878 50.1421 98.1976C48.9518 99.4075 47.4495 99.9948 45.6352 99.9597C43.8208 99.9245 42.3424 99.2794 41.1999 98.0243C40.0574 96.7693 39.5025 95.2985 39.5351 93.612C39.5678 91.9255 40.2117 90.4779 41.4668 89.2693C42.7218 88.0607 44.1917 87.4728 45.8765 87.5054C47.5613 87.5381 49.0073 88.1826 50.2146 89.4389C51.4219 90.6952 52.0092 92.1666 51.9765 93.8531ZM40.1763 60.5304C40.1436 62.2169 39.4997 63.6644 38.2446 64.873C36.9896 66.0816 35.5196 66.6696 33.8349 66.6369C32.1501 66.6043 30.7041 65.9598 29.4968 64.7035C28.2895 63.4472 27.7022 61.9758 27.7349 60.2893C27.7675 58.6027 28.379 57.1546 29.5693 55.9447C30.7595 54.7349 32.2619 54.1475 34.0762 54.1827C35.8906 54.2178 37.369 54.863 38.5115 56.118C39.654 57.3731 40.2089 58.8438 40.1763 60.5304Z" fill="white"/>
<defs>
<linearGradient id="paint0_linear_4517_6970" x1="2.8024" y1="0.374389" x2="88.982" y2="68.2175" gradientUnits="userSpaceOnUse">
<stop stop-color="#233A72"/>
<stop offset="1" stop-color="#435789"/>
</linearGradient>
<linearGradient id="paint1_linear_4517_6970" x1="2.8024" y1="0.374389" x2="88.982" y2="68.2175" gradientUnits="userSpaceOnUse">
<stop stop-color="#233A72"/>
<stop offset="1" stop-color="#435789"/>
</linearGradient>
</defs>
</svg>
