<svg width="119" height="78" viewBox="0 0 119 78" fill="none" xmlns="http://www.w3.org/2000/svg">
<path d="M119 40.1736C119 40.1512 119 40.1289 119 40.1066C118.99 39.3867 118.697 38.7 118.185 38.1954C117.673 37.6908 116.983 37.4092 116.265 37.4116H115.546L104.431 15.8817C104.199 15.4349 103.85 15.0609 103.42 14.8005C102.99 14.5402 102.498 14.4037 101.996 14.4061H83.0296L83.7527 8.6544C83.8712 7.55461 83.7554 6.44213 83.4131 5.39053C83.0709 4.33893 82.5099 3.37218 81.7672 2.55419C81.0246 1.73619 80.1173 1.08558 79.1052 0.645402C78.0932 0.205222 76.9995 -0.0145017 75.8964 0.000742229H17.0312C16.312 0.00459739 15.6198 0.27546 15.0881 0.761054C14.5564 1.24665 14.2229 1.91254 14.1521 2.63019L13.5581 7.36797H47.1008C47.6146 7.36531 48.1237 7.46656 48.5976 7.66568C49.0715 7.8648 49.5005 8.15769 49.859 8.52686C50.2174 8.89602 50.4979 9.33387 50.6838 9.81422C50.8696 10.2946 50.957 10.8076 50.9406 11.3226C50.9079 12.3788 50.468 13.3811 49.7134 14.1187C48.9587 14.8562 47.9482 15.2715 46.8944 15.2772H35.7076V15.2935H2.86277C2.11834 15.2974 1.40436 15.5904 0.870807 16.111C0.337257 16.6315 0.0256606 17.3392 0.00147036 18.0853C-0.0105232 18.4497 0.050956 18.8129 0.182226 19.1529C0.313496 19.493 0.511857 19.8029 0.765428 20.0643C1.019 20.3257 1.32257 20.533 1.65795 20.6739C1.99333 20.8149 2.35362 20.8865 2.71725 20.8845H46.2084C47.1971 21.0351 48.0964 21.544 48.7361 22.3147C49.3759 23.0855 49.7117 24.0646 49.68 25.0669C49.6445 26.1931 49.1769 27.262 48.3746 28.0509C47.5724 28.8398 46.4975 29.2878 45.3739 29.3014H15.3964C14.6428 29.3053 13.9202 29.6025 13.3809 30.1302C12.8416 30.658 12.5277 31.3751 12.5054 32.1304C12.493 32.4986 12.5548 32.8655 12.6873 33.2092C12.8197 33.5528 13.02 33.8661 13.2761 34.1303C13.5321 34.3944 13.8388 34.604 14.1776 34.7465C14.5164 34.889 14.8805 34.9614 15.2479 34.9593H44.8795C45.8776 35.0973 46.7898 35.6001 47.441 36.3712C48.0921 37.1422 48.4363 38.1273 48.4075 39.1373C48.3721 40.2688 47.9005 41.3425 47.0919 42.1325C46.2833 42.9225 45.2006 43.3673 44.0717 43.3733H10.0821H7.22525C6.4717 43.3772 5.7491 43.6744 5.20978 44.2021C4.67046 44.7299 4.35656 45.447 4.33425 46.2023C4.32185 46.5705 4.38372 46.9374 4.51615 47.2811C4.64858 47.6247 4.84885 47.938 5.10494 48.2022C5.36104 48.4663 5.66769 48.6759 6.00651 48.8184C6.34534 48.9609 6.70936 49.0332 7.07676 49.0312H9.54161L8.57794 59.147C8.45974 60.2467 8.57566 61.359 8.91803 62.4104C9.26041 63.4619 9.82144 64.4284 10.564 65.2463C11.3066 66.0641 12.2139 66.7146 13.2258 67.1546C14.2378 67.5947 15.3314 67.8144 16.4343 67.7992H18.562C19.0613 70.6655 20.5561 73.262 22.7817 75.129C25.0072 76.9961 27.8198 78.013 30.7214 77.9999C33.6728 77.9792 36.531 76.9611 38.834 75.1101C41.1369 73.259 42.75 70.6833 43.4124 67.7992H69.9481C72.0663 67.7803 74.1098 67.012 75.7182 65.6298C77.1977 67.0431 79.1689 67.8215 81.2122 67.7992H81.6487C82.148 70.6655 83.6428 73.262 85.8683 75.129C88.0938 76.9961 90.9065 78.013 93.8081 77.9999C96.7595 77.9792 99.6177 76.9611 101.921 75.1101C104.224 73.259 105.837 70.6833 106.499 67.7992H108.247C110.499 67.7557 112.659 66.8893 114.32 65.3626C115.98 63.8359 117.029 61.7539 117.267 59.5074L118.984 40.449C118.984 40.4237 118.984 40.3984 118.984 40.3716C118.984 40.3448 118.991 40.2942 118.993 40.254C118.994 40.2138 119 40.1959 119 40.1736ZM30.8684 72.3464C29.9512 72.3504 29.0426 72.1692 28.1967 71.8135C27.3508 71.4577 26.5851 70.9348 25.9452 70.2758C25.3052 69.6169 24.8042 68.8355 24.472 67.9782C24.1397 67.1209 23.9831 66.2052 24.0114 65.2859C24.072 63.4007 24.8584 61.6124 26.2055 60.296C27.5526 58.9796 29.3558 58.2375 31.2367 58.2254C32.1539 58.2213 33.0626 58.4026 33.9084 58.7583C34.7543 59.1141 35.52 59.637 36.16 60.296C36.7999 60.9549 37.3009 61.7363 37.6332 62.5936C37.9654 63.4509 38.122 64.3666 38.0937 65.2859C38.0331 67.1711 37.2468 68.9594 35.8997 70.2758C34.5526 71.5922 32.7494 72.3343 30.8684 72.3464ZM93.9581 72.3464C93.0408 72.3504 92.1322 72.1692 91.2863 71.8135C90.4405 71.4577 89.6747 70.9348 89.0348 70.2758C88.3948 69.6169 87.8938 68.8355 87.5616 67.9782C87.2294 67.1209 87.0727 66.2052 87.1011 65.2859C87.1617 63.4007 87.948 61.6124 89.2951 60.296C90.6422 58.9796 92.4454 58.2375 94.3263 58.2254C95.2436 58.2213 96.1522 58.4026 96.9981 58.7583C97.8439 59.1141 98.6097 59.637 99.2496 60.296C99.8895 60.9549 100.391 61.7363 100.723 62.5936C101.055 63.4509 101.212 64.3666 101.183 65.2859C101.123 67.1711 100.336 68.9594 98.9893 70.2758C97.6422 71.5922 95.839 72.3343 93.9581 72.3464ZM111.662 59.1411C111.567 59.9516 111.186 60.701 110.586 61.2527C109.986 61.8043 109.209 62.1212 108.395 62.1457H106.507C105.883 59.4184 104.353 56.985 102.167 55.2458C99.9808 53.5066 97.2696 52.5652 94.4792 52.5764C91.6388 52.5962 88.8815 53.5397 86.6217 55.2653C84.3618 56.9909 82.7215 59.4053 81.9472 62.1457H81.3666C81.0303 62.1534 80.6963 62.0898 80.3862 61.9592C80.0761 61.8287 79.7969 61.634 79.5669 61.3879C79.3417 61.133 79.1725 60.8334 79.0702 60.5087C78.9679 60.184 78.9348 59.8413 78.973 59.5029L82.5248 20.0462H90.681L89.3892 34.4144C89.2708 35.5142 89.3865 36.6267 89.7288 37.6783C90.0711 38.7299 90.6321 39.6966 91.3747 40.5146C92.1173 41.3326 93.0247 41.9832 94.0367 42.4234C95.0488 42.8636 96.1425 43.0833 97.2455 43.0681H113.108L111.662 59.1411Z" fill="url(#paint0_linear_1061_1018)"/>
<defs>
<linearGradient id="paint0_linear_1061_1018" x1="2.76744" y1="-6.64435e-07" x2="53.5437" y2="88.705" gradientUnits="userSpaceOnUse">
<stop stop-color="#233A72"/>
<stop offset="1" stop-color="#435789"/>
</linearGradient>
</defs>
</svg>
