<svg width="44" height="44" viewBox="0 0 44 44" fill="none" xmlns="http://www.w3.org/2000/svg">
<path d="M29.8445 20.4332H29.2001V20.4H22V23.6H26.5213C25.8617 25.4628 24.0892 26.8001 22 26.8001C19.3492 26.8001 17.2 24.6508 17.2 22C17.2 19.3492 19.3492 17.2 22 17.2C23.2236 17.2 24.3368 17.6616 25.1844 18.4156L27.4473 16.1528C26.0185 14.8212 24.1072 14 22 14C17.582 14 14 17.582 14 22C14 26.4181 17.582 30.0001 22 30.0001C26.4181 30.0001 30.0001 26.4181 30.0001 22C30.0001 21.4636 29.9449 20.94 29.8445 20.4332Z" fill="#FFC107"/>
<path d="M14.9219 18.2764L17.5503 20.204C18.2615 18.4432 19.9839 17.2 21.9995 17.2C23.2231 17.2 24.3363 17.6616 25.1839 18.4156L27.4467 16.1528C26.0179 14.8212 24.1067 14 21.9995 14C18.9267 14 16.2619 15.7348 14.9219 18.2764Z" fill="#FF3D00"/>
<path d="M22 30.0003C24.0664 30.0003 25.944 29.2094 27.3636 27.9234L24.8876 25.8282C24.0844 26.4366 23.086 26.8002 22 26.8002C19.9192 26.8002 18.1523 25.4734 17.4867 23.6218L14.8779 25.6318C16.2019 28.2226 18.8907 30.0003 22 30.0003Z" fill="#4CAF50"/>
<path d="M29.8444 20.4333H29.2V20.4001H22V23.6002H26.5212C26.2044 24.495 25.6288 25.2666 24.8864 25.8286C24.8868 25.8282 24.8872 25.8282 24.8876 25.8278L27.3636 27.923C27.1884 28.0822 30 26.0002 30 22.0002C30 21.4638 29.9448 20.9401 29.8444 20.4333Z" fill="#1976D2"/>
<circle cx="22" cy="22" r="21.5" stroke="#EBF0FF"/>
</svg>
