<svg width="110" height="88" viewBox="0 0 110 88" fill="none" xmlns="http://www.w3.org/2000/svg">
<path d="M31.1173 77.9191C31.1173 78.4522 31.2239 78.8786 31.3838 79.2517C31.597 79.6248 31.8102 79.9446 32.13 80.1578C32.4498 80.3711 32.8229 80.531 33.2494 80.6909C33.6758 80.7975 34.1022 80.8508 34.5819 80.8508C34.9017 80.8508 35.2215 80.8508 35.5947 80.7975C35.9678 80.7442 36.2876 80.6376 36.6074 80.4777C36.9272 80.3177 37.1937 80.1045 37.4069 79.8913C37.6202 79.6248 37.7268 79.305 37.7268 78.9319C37.7268 78.5055 37.5669 78.1856 37.3003 77.9191C37.0338 77.6526 36.6607 77.4394 36.2343 77.2262C35.8079 77.0663 35.2748 76.9064 34.7418 76.7465C34.1555 76.6399 33.6225 76.48 33.0361 76.3201C32.4498 76.1602 31.8635 76.0002 31.3305 75.787C30.7441 75.5738 30.2644 75.3073 29.838 74.9342C29.4116 74.6144 29.0385 74.188 28.7719 73.6549C28.5054 73.1752 28.3455 72.5356 28.3455 71.7894C28.3455 70.9898 28.5054 70.2969 28.8785 69.6572C29.1984 69.0709 29.6781 68.5379 30.2111 68.1648C30.7974 67.7917 31.3838 67.4718 32.13 67.2586C32.8229 67.0454 33.5692 66.9921 34.2621 66.9921C35.0616 66.9921 35.8612 67.0987 36.6607 67.2586C37.4069 67.4185 38.0999 67.7384 38.6862 68.1648C39.2725 68.5912 39.7523 69.1242 40.0721 69.7639C40.3919 70.4035 40.6051 71.203 40.6051 72.1092H37.247C37.1937 71.6294 37.1404 71.2563 36.9272 70.9365C36.7673 70.6167 36.5541 70.4035 36.2343 70.1903C35.9678 70.0304 35.648 69.8705 35.2748 69.8172C34.9017 69.7639 34.5286 69.7106 34.1022 69.7106C33.8357 69.7106 33.5159 69.7639 33.2494 69.8172C32.9828 69.8705 32.7163 69.9771 32.5031 70.137C32.2899 70.2969 32.0767 70.4568 31.9168 70.7233C31.7569 70.9365 31.7036 71.203 31.7036 71.5761C31.7036 71.896 31.7569 72.1625 31.8635 72.3224C31.9701 72.5356 32.2366 72.6955 32.5564 72.8554C32.8762 73.0153 33.356 73.1752 33.9956 73.3351C34.5819 73.495 35.3815 73.7082 36.3942 73.9748C36.6074 74.0281 36.8206 74.0814 37.1404 74.188C37.4602 74.2946 37.7801 74.4012 38.0999 74.5078C38.473 74.6677 38.7928 74.8276 39.1126 75.0408C39.4324 75.254 39.7523 75.5205 40.0721 75.8403C40.3386 76.1602 40.6051 76.5333 40.765 77.013C40.9249 77.4394 41.0315 77.9724 41.0315 78.5588C41.0315 79.305 40.8716 79.9446 40.6051 80.5843C40.3386 81.2239 39.9122 81.7569 39.3791 82.1833C38.8461 82.6098 38.1532 82.9829 37.3003 83.2494C36.5008 83.5159 35.5414 83.6225 34.4753 83.6225C33.6225 83.6225 32.7696 83.5159 31.9701 83.3027C31.1706 83.0895 30.4243 82.7697 29.838 82.2899C29.1984 81.8102 28.7186 81.2772 28.3455 80.531C27.9724 79.838 27.8125 78.9852 27.8125 78.0257H31.1173V77.9191Z" fill="#FAA236"/>
<path d="M42.9502 67.4185H44.8158V73.4417H44.8691C45.029 73.1219 45.2422 72.8021 45.5087 72.5356C45.7752 72.269 46.095 72.1091 46.4149 71.9492C46.7347 71.7893 47.1078 71.6827 47.4276 71.6294C47.8007 71.5761 48.1205 71.5228 48.4936 71.5228C49.2399 71.5228 49.8795 71.6294 50.3592 71.8426C50.839 72.0558 51.2654 72.3223 51.5852 72.6955C51.905 73.0686 52.1182 73.495 52.2248 74.028C52.3314 74.5611 52.438 75.0941 52.438 75.7337V83.2494H50.5724V75.5205C50.5724 74.8276 50.3592 74.2412 49.9328 73.8681C49.5064 73.4417 48.9734 73.2285 48.2271 73.2285C47.6408 73.2285 47.1611 73.3351 46.7347 73.495C46.3083 73.6549 45.9884 73.9214 45.6686 74.2412C45.4021 74.5611 45.1889 74.9342 45.029 75.3606C44.8691 75.787 44.8158 76.2667 44.8158 76.7998V83.2494H42.9502V67.4185Z" fill="#FAA236"/>
<path d="M54.623 77.4394C54.623 76.5865 54.7297 75.8403 54.9962 75.0941C55.2094 74.3478 55.5825 73.7082 56.0622 73.1752C56.5419 72.6422 57.1283 72.2157 57.8212 71.8959C58.5141 71.5761 59.3137 71.4162 60.2198 71.4162C61.1259 71.4162 61.9255 71.5761 62.6184 71.8959C63.3114 72.2157 63.8977 72.6422 64.3774 73.1752C64.8571 73.7082 65.1769 74.3478 65.4435 75.0941C65.6567 75.8403 65.8166 76.5865 65.8166 77.4394C65.8166 78.2922 65.71 79.0384 65.4435 79.7847C65.2302 80.5309 64.8571 81.1173 64.3774 81.6503C63.8977 82.1833 63.3114 82.6097 62.6184 82.9295C61.9255 83.2493 61.1259 83.4093 60.2198 83.4093C59.3137 83.4093 58.5141 83.2493 57.8212 82.9295C57.1283 82.6097 56.5419 82.1833 56.0622 81.6503C55.5825 81.1173 55.2627 80.4776 54.9962 79.7847C54.7297 79.0918 54.623 78.2922 54.623 77.4394ZM56.5952 77.4394C56.5952 78.1323 56.7018 78.7719 56.8617 79.305C57.0217 79.838 57.2882 80.3177 57.608 80.6375C57.9278 81.0106 58.3009 81.2772 58.7273 81.4904C59.1538 81.7036 59.6335 81.7569 60.1132 81.7569C60.5929 81.7569 61.0727 81.6503 61.4991 81.4904C61.9255 81.2772 62.2986 81.0106 62.6184 80.6375C62.9382 80.2644 63.2048 79.838 63.3647 79.305C63.5246 78.7719 63.6312 78.1323 63.6312 77.4394C63.6312 76.7465 63.5246 76.1068 63.3647 75.5738C63.2048 75.0408 62.9382 74.561 62.6184 74.2412C62.2986 73.8681 61.9255 73.6016 61.4991 73.3884C61.0727 73.1752 60.5929 73.1219 60.1132 73.1219C59.6335 73.1219 59.1538 73.2285 58.7273 73.3884C58.3009 73.6016 57.9278 73.8681 57.608 74.2412C57.2882 74.6144 57.0217 75.0408 56.8617 75.5738C56.7018 76.1601 56.5952 76.7998 56.5952 77.4394Z" fill="#FAA236"/>
<path d="M67.6826 71.736H70.6676V73.1752H70.7209C71.094 72.5355 71.5737 72.1091 72.16 71.8426C72.7464 71.5761 73.386 71.4162 74.0789 71.4162C74.9851 71.4162 75.7313 71.5761 76.4242 71.9492C77.0639 72.269 77.5969 72.7488 78.0233 73.2818C78.4497 73.8148 78.7695 74.5077 78.9827 75.254C79.196 76.0002 79.3026 76.7998 79.3026 77.5993C79.3026 78.3455 79.196 79.0918 78.9827 79.7847C78.7695 80.4776 78.4497 81.1173 78.0233 81.6503C77.5969 82.1833 77.0639 82.6097 76.4775 82.9828C75.8379 83.3026 75.145 83.4626 74.2921 83.4626C73.5992 83.4626 72.9596 83.3027 72.3732 83.0361C71.7869 82.7163 71.2539 82.2899 70.8808 81.7569H70.8275V87.1937H67.6826V71.736ZM73.4393 81.1172C73.9723 81.1172 74.3987 81.0106 74.7185 80.7974C75.0384 80.5842 75.3582 80.3177 75.5714 79.9979C75.7846 79.6781 75.9445 79.305 76.0511 78.8252C76.1577 78.3988 76.1577 77.9191 76.1577 77.4927C76.1577 77.013 76.1044 76.5865 75.9978 76.1601C75.8912 75.7337 75.7313 75.3073 75.5181 74.9875C75.3049 74.6676 75.0384 74.3478 74.6652 74.1346C74.2921 73.9214 73.919 73.8148 73.386 73.8148C72.853 73.8148 72.4265 73.9214 72.1067 74.1346C71.7869 74.3478 71.4671 74.6143 71.2539 74.9875C71.0407 75.3073 70.8808 75.7337 70.8275 76.1601C70.7209 76.5865 70.7209 77.0663 70.7209 77.4927C70.7209 77.9724 70.7742 78.3988 70.8808 78.8252C70.9874 79.2517 71.1473 79.6248 71.3605 79.9979C71.5737 80.3177 71.8402 80.5842 72.2133 80.7974C72.5331 81.0106 72.9596 81.1172 73.4393 81.1172Z" fill="#FAA236"/>
<path d="M81.1681 71.736H84.153V73.1752H84.2063C84.5794 72.5356 85.0591 72.1091 85.6455 71.8426C86.2318 71.5761 86.8714 71.4162 87.5644 71.4162C88.4705 71.4162 89.2167 71.5761 89.9097 71.9492C90.5493 72.2691 91.0823 72.7488 91.5087 73.2818C91.9352 73.8148 92.255 74.5078 92.4682 75.254C92.6814 76.0002 92.788 76.7998 92.788 77.5993C92.788 78.3455 92.6814 79.0918 92.4682 79.7847C92.255 80.4776 91.9352 81.1173 91.5087 81.6503C91.0823 82.1833 90.5493 82.6097 89.963 82.9828C89.3233 83.3027 88.6304 83.4626 87.7776 83.4626C87.0846 83.4626 86.445 83.3027 85.8587 83.0362C85.2724 82.7163 84.7393 82.2899 84.3662 81.7569H84.3129V87.1937H81.1681V71.736ZM86.978 81.1173C87.5111 81.1173 87.9375 81.0107 88.2573 80.7975C88.5771 80.5842 88.8969 80.3177 89.1101 79.9979C89.3233 79.6781 89.4832 79.305 89.5899 78.8253C89.6965 78.3988 89.6965 77.9191 89.6965 77.4927C89.6965 77.013 89.6432 76.5866 89.5365 76.1601C89.4299 75.7337 89.27 75.3073 89.0568 74.9875C88.8436 74.6677 88.5771 74.3479 88.204 74.1346C87.8309 73.9214 87.4578 73.8148 86.9247 73.8148C86.3917 73.8148 85.9653 73.9214 85.6455 74.1346C85.3256 74.3479 85.0058 74.6144 84.7926 74.9875C84.5794 75.3073 84.4195 75.7337 84.3662 76.1601C84.2596 76.5866 84.2596 77.0663 84.2596 77.4927C84.2596 77.9724 84.3129 78.3988 84.4195 78.8253C84.5261 79.2517 84.686 79.6248 84.8992 79.9979C85.1124 80.3177 85.379 80.5842 85.7521 80.7975C86.0186 81.0107 86.445 81.1173 86.978 81.1173Z" fill="#FAA236"/>
<path d="M96.892 69.7105H95.0264V67.4185H96.892V69.7105ZM95.0264 71.736H96.892V83.1427H95.0264V71.736Z" fill="#FAA236"/>
<path d="M99.8232 71.7361H101.582V73.5483H101.636C102.009 72.8554 102.542 72.3224 103.181 72.0026C103.821 71.6828 104.514 71.4695 105.367 71.4695C106.113 71.4695 106.753 71.5761 107.232 71.7894C107.712 72.0026 108.138 72.2691 108.458 72.6422C108.778 73.0153 108.991 73.4417 109.098 73.9748C109.204 74.5078 109.311 75.0408 109.311 75.6804V83.1961H107.445V75.4672C107.445 74.7743 107.232 74.188 106.806 73.8148C106.379 73.3884 105.846 73.1752 105.1 73.1752C104.514 73.1752 104.034 73.2818 103.608 73.4417C103.181 73.6016 102.861 73.8682 102.542 74.188C102.275 74.5078 102.062 74.8809 101.902 75.3073C101.742 75.7337 101.689 76.2135 101.689 76.7465V83.1961H99.8232V71.7361Z" fill="#FAA236"/>
<path d="M49.2397 0.204102C51.7982 0.204102 53.8237 2.17629 53.877 4.73481C53.877 7.24003 51.8515 9.31882 49.3463 9.31882C46.7878 9.31882 44.709 7.29333 44.709 4.78812C44.6024 2.2829 46.6812 0.204102 49.2397 0.204102Z" fill="#FAA236"/>
<path d="M71.2012 0.204102C73.7598 0.204102 75.7852 2.17629 75.8385 4.73481C75.8385 7.24003 73.813 9.31882 71.2545 9.31882C68.696 9.31882 66.6172 7.29333 66.6172 4.78812C66.5639 2.2829 68.6427 0.204102 71.2012 0.204102Z" fill="#FAA236"/>
<path d="M92.1485 0.204102C94.707 0.204102 96.7325 2.17629 96.7858 4.73481C96.7858 7.24003 94.7603 9.31882 92.2018 9.31882C89.6432 9.31882 87.5645 7.29333 87.5645 4.78812C87.5645 2.2829 89.6433 0.204102 92.1485 0.204102Z" fill="#FAA236"/>
<path d="M15.7129 56.5981C18.2714 56.5981 20.2969 58.5703 20.3502 61.1289C20.3502 63.6341 18.3247 65.7129 15.7662 65.7129C13.2077 65.7129 11.1289 63.6874 11.1289 61.1822C11.1289 58.6769 13.2077 56.5981 15.7129 56.5981Z" fill="#FAA236"/>
<path d="M57.2353 32.1323C56.0094 26.6955 54.4103 21.3119 53.0244 15.9284C52.8112 15.0222 52.4914 14.7024 51.4787 14.7024C46.8946 14.7557 42.3639 14.7557 37.7799 14.7024C36.9804 14.7024 36.554 14.9156 36.1808 15.6085C33.0893 21.3652 29.9444 27.0686 26.8529 32.7719C26.4265 33.5715 25.9468 33.8913 24.9873 33.8913C17.8448 33.838 10.7023 33.838 3.55972 33.7847C2.01395 33.7847 0.787988 34.5842 0.254963 35.9701C-0.278062 37.3027 0.0417534 38.9017 1.0545 39.9145C1.69413 40.5541 2.49367 40.8739 3.45311 40.8739C12.1414 40.8739 20.8297 40.9272 29.518 40.9805C30.2643 40.9805 30.5841 40.714 30.9039 40.0744C34.1553 34.0512 37.4601 28.0813 40.7116 22.0581C41.0847 21.3119 41.5111 20.9388 42.3639 21.0454C42.7903 21.0987 43.2701 21.0454 43.7498 21.0454C45.9885 21.0454 45.9352 21.0454 46.5748 23.2308C48.1739 28.721 49.773 34.2111 51.4254 39.648C52.3315 42.6862 54.9966 44.1787 57.9282 43.3791C59.474 42.9527 60.4868 41.8867 61.233 40.5541C64.1646 35.2772 67.3095 30.0535 70.0812 24.67C70.1345 24.5634 70.1878 24.3502 70.5076 24.3502C71.9468 27.2818 73.5992 30.1601 75.2516 33.0385C76.6907 35.597 78.0766 38.1555 79.5691 40.6607C81.0082 43.1126 83.1936 44.0721 85.6988 43.4324C87.6177 42.9527 88.7371 41.6735 89.2701 39.8612C91.6154 31.7059 93.9607 23.5506 96.306 15.4486C96.5192 14.7024 96.2527 14.6491 95.6664 14.6491C93.3744 14.6491 91.0824 14.7024 88.7371 14.6491C87.8842 14.5958 87.671 15.0222 87.4578 15.7152C86.072 21.0454 84.4729 26.3223 83.2469 31.7059C83.2469 31.8125 83.1403 31.9191 83.087 32.0257C82.7139 31.8125 82.6606 31.4394 82.5007 31.1196C80.262 26.429 77.7568 21.8982 75.3049 17.3675C74.1855 15.2887 72.5864 14.1694 70.1345 14.2227C67.7892 14.276 66.2434 15.3953 65.2307 17.4208C62.7788 22.1648 60.2736 26.8554 57.8216 31.5993C57.6084 31.7592 57.5551 32.0257 57.2353 32.1323Z" fill="#FAA236"/>
<path d="M35.6475 43.2192C38.3126 43.2192 40.7112 43.2192 43.1631 43.2192C43.6428 43.2192 43.856 43.4324 44.016 43.8055C44.2825 44.3386 44.6023 44.8716 44.8688 45.4046C45.7749 47.2169 47.2141 47.9631 49.2396 47.9631C62.2987 47.9631 75.3578 47.9631 88.4169 47.9631C89.8561 47.9631 91.3486 48.0697 92.7877 47.9098C94.6533 47.6966 95.0264 47.2702 95.0264 45.4579C95.0264 40.5541 95.0264 35.6503 95.0264 30.6931C95.0264 28.9875 95.5594 28.4011 97.2651 28.4011C98.1713 28.4011 99.1307 28.4011 100.037 28.4011C100.623 28.4011 100.836 28.561 100.836 29.1474C100.836 35.9701 100.89 42.7928 100.783 49.6688C100.783 51.641 99.6104 53.0269 97.8515 53.933C96.3057 54.7325 94.6533 54.9458 92.9476 55.0524C91.2953 55.1057 89.6429 55.0524 87.9905 55.1057C87.4042 55.1057 87.2443 54.9458 87.0844 54.3594C86.2848 51.1613 83.673 49.1358 80.5815 49.1891C77.5432 49.2424 74.9847 51.2679 74.2385 54.3594C74.0785 54.8925 73.9186 55.1057 73.3323 55.1057C70.6672 55.0524 67.9488 55.1057 65.2836 55.1057C64.7506 55.1057 64.4841 54.9991 64.3242 54.4127C63.4714 51.2146 60.9661 49.1891 57.8746 49.1891C54.7831 49.1891 52.3311 51.2146 51.425 54.4127C51.3184 54.7325 51.3717 55.0524 50.8387 55.1057C46.5212 55.4255 42.79 54.3061 39.9117 50.8948C39.7518 50.6816 39.5385 50.4684 39.4319 50.2551C38.2593 47.9631 36.98 45.7244 35.6475 43.2192Z" fill="#FAA236"/>
<path d="M86.1254 55.7454C86.1254 58.7303 83.7268 61.1289 80.7418 61.1289C77.8102 61.1289 75.4116 58.7303 75.3583 55.7987C75.305 52.867 77.7569 50.3618 80.7418 50.3618C83.7268 50.3618 86.1254 52.7604 86.1254 55.7454ZM80.7418 57.2378C81.5947 57.1845 82.1277 56.7581 82.181 55.7987C82.2343 54.8925 81.648 54.3595 80.7951 54.2529C79.9956 54.1463 79.196 54.8925 79.2494 55.7454C79.3027 56.6515 79.7824 57.1845 80.7418 57.2378Z" fill="#FAA236"/>
<path d="M52.5986 55.7985C52.5986 52.7602 54.9972 50.3616 57.9822 50.4149C60.9671 50.4149 63.3124 52.8135 63.3657 55.7452C63.3657 58.7301 60.9671 61.182 57.9289 61.1287C54.9972 61.1287 52.6519 58.7834 52.5986 55.7985ZM59.4747 55.7985C59.3681 54.8923 58.9416 54.3593 58.0355 54.2527C57.1827 54.1461 56.4897 54.8923 56.4897 55.7452C56.543 56.6513 57.0227 57.1843 57.9289 57.1843C58.9416 57.2377 59.3681 56.6513 59.4747 55.7985Z" fill="#FAA236"/>
<path d="M24.348 27.4951L22.9621 30.4801L1.32129 29.6272L24.348 27.4951Z" fill="#FAA236"/>
<path d="M27.8651 20.619L26.6391 23.1775L8.08984 22.4312L27.8651 20.619Z" fill="#FAA236"/>
<path d="M30.9035 14.8091L29.9974 16.7813L15.7656 16.2482L30.9035 14.8091Z" fill="#FAA236"/>
</svg>
