<svg width="9" height="16" viewBox="0 0 9 16" fill="none" xmlns="http://www.w3.org/2000/svg">
<path d="M0.809502 8.08388H2.4675V14.9119C2.4675 14.9766 2.49321 15.0387 2.53897 15.0844C2.58473 15.1302 2.64679 15.1559 2.7115 15.1559H5.5235C5.58821 15.1559 5.65027 15.1302 5.69603 15.0844C5.74179 15.0387 5.7675 14.9766 5.7675 14.9119V8.11588H7.6745C7.7343 8.11578 7.79198 8.09373 7.83659 8.05392C7.88121 8.0141 7.90964 7.95928 7.9165 7.89988L8.2065 5.38588C8.21044 5.35173 8.20713 5.31714 8.19678 5.28436C8.18642 5.25159 8.16926 5.22137 8.14641 5.19569C8.12356 5.17001 8.09554 5.14945 8.06419 5.13535C8.03285 5.12125 7.99887 5.11393 7.96449 5.11388H5.7645V3.53888C5.7645 3.06388 6.02051 2.82288 6.52451 2.82288H7.96049C8.02521 2.82288 8.08727 2.79717 8.13303 2.75141C8.17878 2.70565 8.2045 2.64359 8.2045 2.57888V0.271879C8.20503 0.207508 8.18012 0.145533 8.13516 0.0994552C8.09021 0.0533779 8.02886 0.026932 7.96449 0.0258789L5.98351 0.0258789H5.8925C4.98028 0.029098 4.0998 0.361056 3.41251 0.960879C3.08819 1.2443 2.83935 1.60385 2.68837 2.00722C2.53739 2.4106 2.48899 2.84517 2.5475 3.27188V5.11488H0.806496C0.741783 5.11488 0.679723 5.14059 0.633965 5.18634C0.588206 5.2321 0.5625 5.29417 0.5625 5.35888V7.83988C0.562498 7.87218 0.568903 7.90415 0.581352 7.93395C0.593802 7.96375 0.612049 7.99079 0.635025 8.01348C0.658001 8.03618 0.685252 8.05409 0.715202 8.06617C0.745153 8.07826 0.777208 8.08428 0.809502 8.08388Z" fill="white"/>
</svg>
