<svg width="19" height="19" viewBox="0 0 19 19" fill="none" xmlns="http://www.w3.org/2000/svg">
<path d="M9.4995 6.50574C7.85087 6.50574 6.50546 7.85115 6.50546 9.49979C6.50546 11.1484 7.85087 12.4938 9.4995 12.4938C11.1481 12.4938 12.4935 11.1484 12.4935 9.49979C12.4935 7.85115 11.1481 6.50574 9.4995 6.50574ZM18.4794 9.49979C18.4794 8.25994 18.4906 7.03133 18.421 5.79373C18.3514 4.35623 18.0234 3.08045 16.9723 2.02928C15.9188 0.975863 14.6453 0.65018 13.2078 0.580551C11.968 0.510922 10.7393 0.522152 9.50174 0.522152C8.2619 0.522152 7.03329 0.510922 5.79569 0.580551C4.35819 0.65018 3.08241 0.978109 2.03123 2.02928C0.977817 3.0827 0.652133 4.35623 0.582504 5.79373C0.512875 7.03358 0.524106 8.26219 0.524106 9.49979C0.524106 10.7374 0.512875 11.9682 0.582504 13.2058C0.652133 14.6433 0.980063 15.9191 2.03123 16.9703C3.08465 18.0237 4.35819 18.3494 5.79569 18.419C7.03553 18.4886 8.26415 18.4774 9.50174 18.4774C10.7416 18.4774 11.9702 18.4886 13.2078 18.419C14.6453 18.3494 15.9211 18.0215 16.9723 16.9703C18.0257 15.9169 18.3514 14.6433 18.421 13.2058C18.4929 11.9682 18.4794 10.7396 18.4794 9.49979ZM9.4995 14.1065C6.95018 14.1065 4.89276 12.0491 4.89276 9.49979C4.89276 6.95047 6.95018 4.89305 9.4995 4.89305C12.0488 4.89305 14.1062 6.95047 14.1062 9.49979C14.1062 12.0491 12.0488 14.1065 9.4995 14.1065ZM14.2949 5.78026C13.6997 5.78026 13.219 5.29959 13.219 4.70438C13.219 4.10916 13.6997 3.6285 14.2949 3.6285C14.8901 3.6285 15.3708 4.10916 15.3708 4.70438C15.371 4.84571 15.3433 4.9857 15.2893 5.11631C15.2352 5.24692 15.156 5.36559 15.0561 5.46553C14.9561 5.56547 14.8375 5.64472 14.7068 5.69872C14.5762 5.75273 14.4362 5.78043 14.2949 5.78026Z" fill="white"/>
</svg>
