<svg width="40" height="26" viewBox="0 0 40 26" fill="none" xmlns="http://www.w3.org/2000/svg">
<path d="M2.53257 0H37.5055C37.9562 0.00918945 38.3849 0.196793 38.6971 0.521973C39.0094 0.847152 39.1796 1.28316 39.1705 1.73389V23.4082C39.1796 23.8589 39.0094 24.2944 38.6971 24.6196C38.3849 24.9448 37.9562 25.1329 37.5055 25.1421H2.53257C2.08185 25.1329 1.65316 24.9448 1.34092 24.6196C1.02868 24.2944 0.858425 23.8589 0.867535 23.4082V1.73389C0.858425 1.28316 1.02868 0.847152 1.34092 0.521973C1.65316 0.196793 2.08185 0.00918945 2.53257 0Z" fill="#5870BE"/>
<path d="M17.6211 12.5668C17.6215 10.791 18.1484 9.05527 19.1353 7.57897C20.1221 6.10266 21.5245 4.95214 23.1652 4.27282C24.8058 3.59349 26.6111 3.41596 28.3527 3.76256C30.0943 4.10916 31.694 4.96437 32.9496 6.22008C34.2052 7.4758 35.0602 9.07561 35.4066 10.8172C35.753 12.5589 35.5751 14.3642 34.8956 16.0047C34.2161 17.6453 33.0655 19.0474 31.5891 20.034C30.1127 21.0207 28.3768 21.5475 26.6011 21.5477C25.4217 21.5477 24.2539 21.3155 23.1643 20.8641C22.0747 20.4128 21.0847 19.7513 20.2509 18.9173C19.417 18.0834 18.7555 17.0934 18.3043 16.0038C17.8531 14.9142 17.621 13.7461 17.6211 12.5668Z" fill="#FFAF38"/>
<path d="M12.8423 21.5459C11.3112 21.5457 9.80558 21.1541 8.46848 20.4082C7.13137 19.6623 6.00719 18.5868 5.20273 17.2841C4.39826 15.9814 3.94024 14.4949 3.87216 12.9653C3.80409 11.4357 4.12825 9.9139 4.81381 8.54487C5.49937 7.17585 6.5236 6.00524 7.78915 5.14351C9.05471 4.28178 10.5195 3.75772 12.0445 3.62153C13.5695 3.48535 15.1041 3.74133 16.5023 4.36519C17.9005 4.98904 19.116 5.9601 20.0333 7.18599H18.8333V7.78609H20.4463C20.5673 7.97709 20.6813 8.17495 20.7873 8.37495H18.2332V8.97505H21.0763C21.1643 9.17505 21.2433 9.37515 21.3133 9.57515H17.6333V10.1748H21.5013C21.9875 11.9487 21.9205 13.829 21.3093 15.5639H17.6333V16.164H21.0722C20.9822 16.371 20.8853 16.5638 20.7873 16.7548H18.2332V17.3549H20.4393C20.3063 17.5649 20.1673 17.766 20.0263 17.955H18.8333V18.5551H19.5333C18.6905 19.4955 17.6591 20.2478 16.5063 20.7631C15.3535 21.2785 14.105 21.545 12.8423 21.5459Z" fill="#E63737"/>
<path d="M2.99045 14.2188L3.53715 9.95883L4.38566 10.0677L5.0069 13.2134C5.06384 13.5062 5.10467 13.7251 5.12939 13.8701C5.19771 13.7213 5.30247 13.5034 5.44368 13.2163L6.84402 10.3832L7.60244 10.4805L7.05575 14.7405L6.51235 14.6708L6.96992 11.1053L5.27446 14.5119L4.76593 14.4467L3.99925 10.662L3.53385 14.2886L2.99045 14.2188ZM9.96105 14.7264C9.7462 14.8662 9.54434 14.9585 9.35547 15.0032C9.16855 15.0481 8.97241 15.0574 8.76706 15.031C8.42805 14.9875 8.17805 14.8718 8.01708 14.6837C7.85636 14.4938 7.79254 14.2699 7.8256 14.0123C7.845 13.8612 7.89655 13.728 7.98026 13.6127C8.06616 13.4957 8.16917 13.4066 8.28929 13.3452C8.41135 13.284 8.5446 13.2431 8.68905 13.2222C8.79521 13.2083 8.95354 13.202 9.16406 13.2034C9.59284 13.2073 9.91148 13.1871 10.12 13.143C10.1311 13.0715 10.1379 13.0261 10.1404 13.0068C10.1677 12.7937 10.1376 12.6372 10.05 12.5373C9.93149 12.402 9.74051 12.3174 9.47705 12.2836C9.23102 12.2521 9.04332 12.2723 8.91396 12.3443C8.78679 12.4146 8.68107 12.5556 8.59679 12.7673L8.09431 12.6319C8.1689 12.419 8.26804 12.2525 8.39175 12.1325C8.5157 12.0106 8.68301 11.9267 8.89368 11.8809C9.1046 11.8331 9.34276 11.8263 9.60816 11.8604C9.87163 11.8942 10.0817 11.9526 10.2384 12.0358C10.3951 12.1189 10.5061 12.2129 10.5714 12.3177C10.637 12.4207 10.6761 12.5458 10.6887 12.6931C10.6947 12.7845 10.6828 12.9464 10.6529 13.1789L10.5634 13.8763C10.501 14.3625 10.4722 14.6719 10.4768 14.8044C10.4836 14.9353 10.5124 15.064 10.5631 15.1906L10.0168 15.1205C9.97649 15.0051 9.95791 14.8737 9.96105 14.7264ZM10.0674 13.5527C9.86759 13.6058 9.57436 13.6351 9.1877 13.6407C8.96869 13.6441 8.81214 13.6594 8.71805 13.6867C8.62397 13.714 8.54786 13.7623 8.48974 13.8317C8.43186 13.8991 8.39708 13.9783 8.38539 14.0694C8.36749 14.2088 8.40488 14.3318 8.49756 14.4382C8.59217 14.5449 8.74119 14.6112 8.9446 14.6373C9.14607 14.6632 9.33086 14.6426 9.49896 14.5756C9.66731 14.5066 9.79812 14.4003 9.89137 14.2567C9.96272 14.1458 10.0132 13.975 10.0428 13.7445L10.0674 13.5527ZM11.1201 14.3258L11.6478 14.3108C11.6503 14.5218 11.7103 14.691 11.8278 14.8183C11.9473 14.9459 12.1262 15.025 12.3645 15.0556C12.6047 15.0864 12.7892 15.0608 12.9178 14.9789C13.0467 14.895 13.1196 14.7872 13.1365 14.6555C13.1517 14.5373 13.1123 14.4377 13.0183 14.3567C12.9526 14.301 12.782 14.2191 12.5064 14.1109C12.1353 13.9648 11.8796 13.8473 11.7394 13.7584C11.6013 13.6678 11.5015 13.5556 11.44 13.4217C11.3806 13.286 11.3606 13.1427 11.38 12.9916C11.3976 12.854 11.4449 12.7311 11.5218 12.6228C11.6009 12.5129 11.6996 12.4261 11.8181 12.3625C11.9071 12.3129 12.024 12.2767 12.1687 12.2539C12.3156 12.2295 12.4695 12.2276 12.6303 12.2482C12.8724 12.2793 13.0801 12.3414 13.2532 12.4345C13.4283 12.5278 13.5517 12.6402 13.6235 12.7715C13.6955 12.9008 13.7352 13.0674 13.7425 13.2711L13.2221 13.2752C13.2192 13.1134 13.1674 12.9807 13.0664 12.8772C12.9674 12.7739 12.8162 12.7092 12.6128 12.6831C12.3726 12.6523 12.1961 12.67 12.0832 12.7362C11.9703 12.8025 11.9071 12.8889 11.8934 12.9954C11.8847 13.0632 11.8982 13.127 11.9338 13.1867C11.9692 13.2484 12.0301 13.3034 12.1164 13.3519C12.1663 13.378 12.3146 13.4423 12.5613 13.5449C12.9186 13.6912 13.1659 13.8056 13.3029 13.8882C13.4422 13.9691 13.5458 14.0749 13.6137 14.2057C13.6816 14.3365 13.7041 14.491 13.6812 14.6692C13.6588 14.8436 13.5864 15.0017 13.4638 15.1435C13.3434 15.2836 13.1819 15.384 12.9792 15.4446C12.7767 15.5033 12.5544 15.5171 12.3122 15.486C11.9112 15.4345 11.6158 15.312 11.426 15.1183C11.2382 14.9248 11.1362 14.6606 11.1201 14.3258ZM15.3888 15.3344L15.405 15.8061C15.2538 15.8182 15.1201 15.8168 15.0039 15.8019C14.814 15.7775 14.6706 15.7286 14.5737 15.6551C14.4768 15.5816 14.4133 15.4937 14.3831 15.3914C14.3531 15.2871 14.3583 15.0781 14.3986 14.7643L14.6264 12.9888L14.2429 12.9396L14.2951 12.5327L14.6786 12.582L14.7767 11.8177L15.3372 11.5706L15.1988 12.6487L15.7248 12.7162L15.6725 13.123L15.1466 13.0555L14.915 14.8601C14.8959 15.0092 14.8923 15.1062 14.9042 15.1511C14.9181 15.1962 14.9438 15.234 14.9813 15.2644C15.0207 15.295 15.0791 15.3153 15.1566 15.3253C15.2147 15.3327 15.2921 15.3358 15.3888 15.3344ZM18.0831 15.1455L18.6151 15.2817C18.4893 15.5866 18.3 15.8114 18.0471 15.9561C17.7942 16.1009 17.4885 16.1503 17.1301 16.1043C16.6787 16.0464 16.3381 15.8619 16.1083 15.5508C15.8806 15.238 15.799 14.8307 15.8634 14.329C15.93 13.8098 16.1154 13.424 16.4195 13.1716C16.7236 12.9192 17.0888 12.8204 17.515 12.8751C17.9276 12.928 18.2467 13.1117 18.4722 13.4262C18.6976 13.7407 18.7777 14.1526 18.7123 14.6621C18.7083 14.6931 18.7014 14.7395 18.6915 14.8012L16.3901 14.5059C16.3659 14.8474 16.4285 15.1193 16.5778 15.3216C16.7271 15.5239 16.9306 15.6415 17.1882 15.6746C17.38 15.6992 17.5502 15.6699 17.6987 15.5865C17.8472 15.5032 17.9754 15.3562 18.0831 15.1455ZM16.4743 14.0795L18.1975 14.3007C18.2075 14.0381 18.1667 13.835 18.0748 13.6913C17.9341 13.4684 17.731 13.3399 17.4656 13.3059C17.2254 13.2751 17.0126 13.3295 16.8273 13.4691C16.644 13.609 16.5263 13.8125 16.4743 14.0795ZM19.1499 16.2926L19.546 13.2066L20.0167 13.267L19.9567 13.7349C20.1049 13.5314 20.2338 13.4012 20.3435 13.3444C20.4551 13.2878 20.572 13.2674 20.694 13.283C20.8703 13.3057 21.0423 13.3848 21.21 13.5206L20.9675 13.9827C20.8494 13.8908 20.7263 13.8366 20.5985 13.8202C20.4842 13.8055 20.377 13.8272 20.277 13.8853C20.1773 13.9414 20.1002 14.028 20.0458 14.145C19.9638 14.3236 19.9087 14.5232 19.8803 14.7441L19.673 16.3597L19.1499 16.2926ZM24.4356 15.4527L24.981 15.6675C24.8034 16.1153 24.545 16.4415 24.2056 16.6461C23.8685 16.8489 23.4781 16.9219 23.0344 16.865C22.5753 16.8061 22.2134 16.6651 21.9486 16.4421C21.686 16.2174 21.5019 15.9181 21.3963 15.5441C21.2926 15.1705 21.2669 14.7802 21.3191 14.3734C21.376 13.9298 21.5099 13.5541 21.7207 13.2464C21.9337 12.937 22.2071 12.7171 22.5408 12.5867C22.8768 12.4545 23.2327 12.4126 23.6085 12.4608C24.0347 12.5155 24.3792 12.67 24.6419 12.9243C24.9046 13.1785 25.0679 13.5096 25.1318 13.9175L24.56 13.9771C24.5009 13.6544 24.3865 13.4103 24.2168 13.2448C24.047 13.0793 23.8198 12.9782 23.535 12.9417C23.2076 12.8997 22.9234 12.943 22.6824 13.0715C22.4434 13.2004 22.2623 13.3918 22.1391 13.6457C22.0162 13.8977 21.9367 14.1642 21.9006 14.4451C21.8541 14.8074 21.8658 15.1308 21.9356 15.4155C22.0076 15.6984 22.1464 15.921 22.352 16.0833C22.5577 16.2455 22.7903 16.3433 23.0499 16.3766C23.3656 16.4172 23.6446 16.3604 23.8869 16.2064C24.1292 16.0524 24.3121 15.8012 24.4356 15.4527ZM27.5008 16.9774C27.2859 17.1172 27.0841 17.2094 26.8952 17.2541C26.7083 17.299 26.5122 17.3083 26.3068 17.282C25.9678 17.2385 25.7178 17.1227 25.5568 16.9347C25.3961 16.7447 25.3323 16.5209 25.3654 16.2632C25.3847 16.1121 25.4363 15.9789 25.52 15.8636C25.6059 15.7467 25.7089 15.6575 25.829 15.5961C25.9511 15.535 26.0843 15.494 26.2288 15.4732C26.335 15.4592 26.4933 15.4529 26.7038 15.4544C27.1326 15.4582 27.4512 15.438 27.6597 15.3939C27.6708 15.3225 27.6777 15.2771 27.6801 15.2577C27.7075 15.0446 27.6774 14.8881 27.5897 14.7883C27.4712 14.653 27.2803 14.5684 27.0168 14.5346C26.7708 14.503 26.5831 14.5232 26.4537 14.5952C26.3265 14.6655 26.2208 14.8066 26.1365 15.0183L25.6341 14.8829C25.7086 14.6699 25.8078 14.5035 25.9315 14.3835C26.0554 14.2615 26.2228 14.1777 26.4334 14.1318C26.6443 14.0841 26.8825 14.0772 27.1479 14.1113C27.4114 14.1451 27.6215 14.2036 27.7782 14.2867C27.9349 14.3698 28.0459 14.4638 28.1112 14.5687C28.1768 14.6716 28.2158 14.7968 28.2284 14.9441C28.2344 15.0354 28.2225 15.1973 28.1927 15.4298L28.1032 16.1272C28.0408 16.6135 28.0119 16.9229 28.0166 17.0554C28.0234 17.1862 28.0522 17.315 28.1029 17.4416L27.5566 17.3715C27.5162 17.256 27.4977 17.1247 27.5008 16.9774ZM27.6071 15.8036C27.4073 15.8568 27.1141 15.8861 26.7274 15.8916C26.5084 15.895 26.3519 15.9103 26.2578 15.9377C26.1637 15.965 26.0876 16.0133 26.0295 16.0826C25.9716 16.15 25.9368 16.2292 25.9251 16.3203C25.9072 16.4598 25.9446 16.5827 26.0373 16.6891C26.1319 16.7958 26.2809 16.8622 26.4843 16.8883C26.6858 16.9141 26.8706 16.8935 27.0387 16.8265C27.2071 16.7575 27.3379 16.6513 27.4311 16.5077C27.5025 16.3967 27.5529 16.2259 27.5825 15.9954L27.6071 15.8036ZM28.7451 17.524L29.1411 14.438L29.6118 14.4984L29.5518 14.9662C29.7 14.7627 29.829 14.6326 29.9386 14.5758C30.0503 14.5192 30.1671 14.4988 30.2891 14.5144C30.4654 14.537 30.6374 14.6162 30.8051 14.7519L30.5627 15.2141C30.4445 15.1221 30.3215 15.068 30.1936 15.0516C30.0793 15.0369 29.9722 15.0586 29.8722 15.1166C29.7724 15.1728 29.6953 15.2593 29.6409 15.3764C29.559 15.5549 29.5038 15.7546 29.4755 15.9755L29.2681 17.5911L28.7451 17.524ZM32.7348 18.036L32.7848 17.6466C32.5498 17.9276 32.2425 18.0437 31.8628 17.995C31.6168 17.9634 31.3988 17.8665 31.2089 17.7043C31.021 17.5424 30.8854 17.333 30.8022 17.0761C30.7212 16.8176 30.7009 16.5305 30.7414 16.2147C30.781 15.9067 30.8681 15.6343 31.0028 15.3976C31.1378 15.1589 31.3166 14.986 31.5391 14.8786C31.7616 14.7713 31.9997 14.7339 32.2535 14.7665C32.4395 14.7904 32.6 14.8513 32.7351 14.9494C32.8705 15.0456 32.9756 15.1624 33.0505 15.3L33.2466 13.7716L33.7668 13.8383L33.2201 18.0983L32.7348 18.036ZM31.279 16.2837C31.2283 16.6789 31.2737 16.985 31.4152 17.2021C31.5567 17.4191 31.7407 17.5422 31.9674 17.5713C32.196 17.6006 32.4016 17.5325 32.5844 17.3669C32.7693 17.1996 32.8863 16.9242 32.9356 16.5406C32.9898 16.1183 32.9482 15.7979 32.8108 15.5794C32.6734 15.3609 32.4856 15.2364 32.2473 15.2058C32.0149 15.176 31.808 15.2459 31.6267 15.4156C31.4474 15.5856 31.3315 15.875 31.279 16.2837Z" fill="white"/>
</svg>
