<svg width="39" height="26" viewBox="0 0 39 26" fill="none" xmlns="http://www.w3.org/2000/svg">
<path d="M1.71693 0.161133H36.4519C36.9007 0.173188 37.3265 0.362146 37.6364 0.687012C37.9462 1.01188 38.115 1.44616 38.1058 1.89502V23.5679C38.115 24.0167 37.9462 24.451 37.6364 24.7759C37.3265 25.1007 36.9007 25.2897 36.4519 25.3018H1.71693C1.26813 25.2897 0.842233 25.1007 0.532356 24.7759C0.222478 24.451 0.0537324 24.0167 0.0628734 23.5679V1.896C0.0534647 1.44696 0.222206 1.01258 0.532112 0.6875C0.842017 0.362418 1.26796 0.173187 1.71693 0.161133Z" fill="#F1F1F1"/>
<path d="M0.475715 24.7109C0.210099 24.3902 0.0654337 23.9863 0.0667799 23.5698V1.896C0.0573712 1.44696 0.22599 1.01258 0.535896 0.6875C0.845802 0.362418 1.27174 0.173187 1.72071 0.161133H36.4547C36.8764 0.162079 37.2808 0.328593 37.5807 0.625L0.48072 24.7109H0.475715Z" fill="white" fill-opacity="0.73"/>
<path d="M14.7117 18.126L16.0116 15.776L15.2876 10.1319H17.0586L17.3446 13.4722L19.0776 10.1319H20.9056L16.6967 18.126H14.7117ZM9.15857 13.9102C9.43157 12.5362 10.7586 12.1002 12.7206 12.1002C12.8376 11.4892 12.4486 11.336 11.7866 11.359C11.2029 11.3872 10.6292 11.5204 10.0927 11.752L10.2476 10.379C10.8917 10.1788 11.5589 10.0614 12.2327 10.0299C13.4587 10.0079 14.8216 10.3993 14.5106 11.9923L13.7516 15.7423H11.9806L12.0966 15.1739C11.891 15.386 11.6453 15.5554 11.3737 15.6715C11.102 15.7875 10.81 15.8482 10.5146 15.8502C9.67565 15.8462 8.92867 15.2998 9.15967 13.9058L9.15857 13.9102ZM10.9696 13.8228C10.9139 13.9018 10.8822 13.9953 10.8784 14.0919C10.8746 14.1884 10.899 14.2842 10.9484 14.3673C10.9978 14.4503 11.0701 14.5174 11.1567 14.5601C11.2434 14.6029 11.3407 14.6193 11.4366 14.608C11.6557 14.6177 11.8709 14.548 12.0427 14.4117C12.2145 14.2754 12.3313 14.0819 12.3716 13.8663C12.3948 13.6977 12.4281 13.5308 12.4716 13.3663H12.0236C11.824 13.3478 11.6231 13.3794 11.439 13.4586C11.2549 13.5377 11.0935 13.6614 10.9696 13.8189V13.8228ZM3.05859 15.7423L4.52258 8.5699H7.82959C8.12439 8.56728 8.41554 8.63551 8.67859 8.76863C8.94163 8.90174 9.16895 9.09595 9.34143 9.33503C9.51391 9.57412 9.62656 9.85105 9.66992 10.1427C9.71328 10.4343 9.68603 10.7319 9.59058 11.0108C9.49539 11.6667 9.16664 12.2661 8.66467 12.6988C8.16271 13.1315 7.52136 13.3688 6.85864 13.3663H5.47559L5.00061 15.7423H3.05859ZM5.75159 11.9923H6.66162C6.92782 11.971 7.17986 11.8635 7.37988 11.6866C7.5799 11.5097 7.71707 11.2724 7.77063 11.0108C7.8126 10.9032 7.828 10.7873 7.81555 10.6724C7.8031 10.5576 7.76316 10.4473 7.6991 10.3511C7.63503 10.255 7.54873 10.1759 7.44751 10.1202C7.34629 10.0645 7.23306 10.0335 7.11755 10.0308H6.1676L5.75159 11.9923Z" fill="#3284AE"/>
<path d="M26.3734 13.9058C26.6494 12.5318 27.9904 12.0972 29.9794 12.0972C30.1174 11.4852 29.7235 11.334 29.0535 11.356C28.4573 11.3866 27.8708 11.5193 27.3195 11.748L27.4774 10.375C28.1372 10.1774 28.8185 10.0604 29.5065 10.0269C30.7475 10.0049 32.1064 10.3958 31.7914 11.9878L31.0234 15.7368H29.2504L29.3684 15.1709C28.9388 15.6 28.3576 15.8431 27.7504 15.8472C26.8924 15.8462 26.1364 15.3008 26.3734 13.9058ZM28.2064 13.8188C28.1525 13.9004 28.1232 13.996 28.1221 14.0938C28.1209 14.1915 28.1481 14.2873 28.2001 14.3701C28.2521 14.4529 28.3267 14.5191 28.4153 14.5605C28.5038 14.602 28.6026 14.6171 28.6995 14.604C28.9173 14.6137 29.1311 14.5438 29.3014 14.4077C29.4717 14.2716 29.5868 14.0783 29.6254 13.8638C29.6644 13.6888 29.6845 13.5358 29.7255 13.3638H29.2924C29.0874 13.343 28.8806 13.3739 28.6904 13.4531C28.5003 13.5324 28.3329 13.6577 28.2034 13.8179L28.2064 13.8188ZM31.8424 15.7368L33.3085 8.54297H35.1284L33.6434 15.7368H31.8424ZM20.2734 15.7368L21.7355 8.56592H25.0354C25.3294 8.56512 25.6193 8.63441 25.8811 8.76807C26.1429 8.90172 26.3691 9.09592 26.5409 9.33447C26.7127 9.57302 26.825 9.84896 26.8688 10.1396C26.9125 10.4303 26.8863 10.7273 26.7924 11.0059C26.6971 11.664 26.3664 12.2652 25.8617 12.6982C25.357 13.1313 24.7124 13.3667 24.0474 13.3608H22.6844L22.1904 15.7358L20.2734 15.7368ZM22.9604 11.9878H23.8484C24.1167 11.9671 24.3713 11.8608 24.5743 11.6841C24.7773 11.5074 24.918 11.2698 24.9755 11.0068C25.0153 10.8977 25.0284 10.7808 25.0139 10.6655C24.9994 10.5503 24.9576 10.4401 24.892 10.3442C24.8264 10.2484 24.7388 10.17 24.6366 10.1147C24.5344 10.0595 24.4206 10.0292 24.3044 10.0269H23.3564L22.9604 11.9878Z" fill="#3CA9C7"/>
</svg>
