<svg width="16" height="12" viewBox="0 0 16 12" fill="none" xmlns="http://www.w3.org/2000/svg">
<path d="M15.1252 1.43275C14.5749 1.67287 13.993 1.83251 13.3972 1.90675C14.0253 1.53428 14.495 0.944353 14.7172 0.248748C14.1298 0.597116 13.4872 0.842645 12.8172 0.97475C12.406 0.534708 11.8719 0.228605 11.2844 0.0962708C10.6969 -0.0360632 10.0831 0.0114971 9.52298 0.232764C8.96285 0.454032 8.48229 0.838761 8.14381 1.33689C7.80534 1.83503 7.62463 2.4235 7.62519 3.02575C7.62299 3.25564 7.64647 3.48506 7.69519 3.70975C6.50181 3.65116 5.33423 3.34137 4.26878 2.80063C3.20333 2.25989 2.264 1.50038 1.51219 0.57175C1.12608 1.23165 1.0065 2.01406 1.17786 2.75916C1.34922 3.50426 1.79859 4.15582 2.43419 4.58075C1.95947 4.56815 1.49474 4.44159 1.07919 4.21175V4.24475C1.07983 4.93702 1.31876 5.60797 1.75582 6.14482C2.19288 6.68168 2.80143 7.05172 3.47919 7.19275C3.22245 7.26084 2.9578 7.29447 2.69219 7.29275C2.50157 7.29621 2.31114 7.27911 2.12419 7.24175C2.31779 7.83671 2.69094 8.35709 3.19233 8.73134C3.69372 9.10559 4.29874 9.31534 4.92419 9.33175C3.86358 10.1604 2.55615 10.6103 1.21019 10.6097C0.970224 10.6114 0.7304 10.5977 0.492188 10.5687C1.86335 11.4522 3.46104 11.9197 5.09219 11.9147C6.21543 11.9226 7.32904 11.7072 8.36833 11.281C9.40762 10.8548 10.3519 10.2264 11.1462 9.43222C11.9406 8.63803 12.5693 7.69393 12.9957 6.65474C13.4221 5.61555 13.6378 4.502 13.6302 3.37875C13.6302 3.24575 13.6302 3.11775 13.6192 2.99075C14.2118 2.56739 14.7222 2.0394 15.1252 1.43275Z" fill="white"/>
</svg>
