<svg width="39" height="26" viewBox="0 0 39 26" fill="none" xmlns="http://www.w3.org/2000/svg">
<path d="M1.7689 0H36.7689C36.9922 0.00429082 37.2125 0.052605 37.4172 0.14209C37.6219 0.231575 37.807 0.360445 37.9618 0.521484C38.1166 0.682523 38.2381 0.87252 38.3194 1.08057C38.4008 1.28861 38.4404 1.51055 38.4359 1.73389V23.4082C38.4404 23.6315 38.4008 23.8535 38.3194 24.0615C38.2381 24.2696 38.1166 24.4596 37.9618 24.6206C37.807 24.7816 37.6219 24.9105 37.4172 25C37.2125 25.0895 36.9922 25.1378 36.7689 25.1421H1.7689C1.54556 25.1378 1.32527 25.0895 1.12059 25C0.915906 24.9105 0.730847 24.7816 0.57603 24.6206C0.421214 24.4596 0.299596 24.2696 0.218242 24.0615C0.136888 23.8535 0.0974004 23.6315 0.101909 23.4082V1.73389C0.0974004 1.51055 0.136888 1.28861 0.218242 1.08057C0.299596 0.87252 0.421214 0.682523 0.57603 0.521484C0.730847 0.360445 0.915906 0.231575 1.12059 0.14209C1.32527 0.052605 1.54556 0.00429082 1.7689 0Z" fill="url(#paint0_linear_4532_6968)"/>
<path d="M30.0759 17.2261L29.824 15.9312H27.09L26.641 17.2261H24.3989L27.606 9.16113C27.6805 8.96114 27.8172 8.79011 27.9958 8.67334C28.1745 8.55657 28.3859 8.50025 28.599 8.51221H30.328L32.0499 17.2271L30.0759 17.2261ZM28.84 10.8818L27.71 14.1431H29.476L28.84 10.8818ZM21.553 10.9961C21.553 11.9481 24.553 12.1518 24.553 14.3408C24.553 16.4488 22.338 17.2241 20.871 17.2241C20.0372 17.2379 19.2099 17.0756 18.443 16.748L18.7629 14.8579C19.6429 15.5779 22.312 15.7831 22.312 14.6401C22.312 13.4971 19.337 13.4699 19.337 11.2939C19.337 8.98195 21.871 8.50586 22.937 8.50586C23.5973 8.52279 24.2504 8.64692 24.871 8.87305L24.564 10.6821C23.646 10.1701 21.551 10.048 21.551 11L21.553 10.9961ZM14.969 17.2261L16.313 8.51074H18.464L17.12 17.2261H14.969ZM9.81201 17.2261L7.94592 9.66406C8.27557 9.86996 8.59009 10.0992 8.88696 10.3501C9.78398 11.1177 10.4665 12.1046 10.8679 13.2148L11.111 14.5059L13.162 8.51221H15.4769L12.0549 17.2271L9.81201 17.2261ZM7.81799 9.58008C7.75133 9.53874 7.68459 9.49894 7.61792 9.46094C7.68192 9.50494 7.74792 9.54296 7.81592 9.58496L7.81799 9.58008ZM7.30396 9.29004C7.24596 9.26004 7.18603 9.2282 7.12903 9.2002C7.18403 9.2332 7.243 9.26492 7.302 9.29492L7.30396 9.29004Z" fill="#494CA3"/>
<defs>
<linearGradient id="paint0_linear_4532_6968" x1="19.2689" y1="25.1421" x2="19.2689" y2="0" gradientUnits="userSpaceOnUse">
<stop stop-color="#E59703"/>
<stop offset="0.231" stop-color="#E59703"/>
<stop offset="0.234" stop-color="white"/>
<stop offset="0.761" stop-color="white"/>
<stop offset="0.766" stop-color="#5457BB"/>
<stop offset="1" stop-color="#5457BB"/>
</linearGradient>
</defs>
</svg>
